Coordinates
version=1
nRows=15
nColumns=46
inDegrees=yes

Units are S.I. units (second, meters, Newtons, ...)
Angles are in degrees.

endheader
time	pelvis_tilt	pelvis_list	pelvis_rotation	pelvis_tx	pelvis_ty	pelvis_tz	bb_angle	bb_tx	bb_ty	bb_tz	hip_flexion_r	hip_adduction_r	hip_rotation_r	knee_angle_r	knee_angle_r_beta	ankle_angle_r	subtalar_angle_r	mtp_angle_r	crank_angle_r	hip_flexion_l	hip_adduction_l	hip_rotation_l	knee_angle_l	knee_angle_l_beta	ankle_angle_l	subtalar_angle_l	mtp_angle_l	crank_angle_l	lumbar_extension	lumbar_bending	lumbar_rotation	arm_flex_r	arm_add_r	arm_rot_r	elbow_flex_r	pro_sup_r	wrist_flex_r	wrist_dev_r	arm_flex_l	arm_add_l	arm_rot_l	elbow_flex_l	pro_sup_l	wrist_flex_l	wrist_dev_l
      2.50500000	    -11.71090524	      6.05616270	     -1.75182199	      0.18659032	      1.14353704	     -0.19620249	      0.00000000	      0.50000000	      0.00000000	      0.25000000	     40.84183717	     -4.80263966	      9.13403877	     29.75607968	      0.51934156	     -7.81201921	    -12.45701549	      0.00000000	      0.00000000	     65.83315849	      3.01713859	      6.53539294	    101.74100168	      1.77571546	     -4.58723725	     -8.93566934	      0.00000000	      0.00000000	    -65.73587580	     -1.66325628	    -14.06597156	     86.36462376	     -8.67461677	     48.92160428	     58.30130382	     40.84361412	      0.00000000	      0.00000000	     79.23614129	    -30.75805102	     23.69884983	     63.81247281	     51.51357072	      0.00000000	      0.00000000
      2.51000000	    -12.03877808	      6.61582762	     -1.03725341	      0.18764393	      1.14381982	     -0.19422271	      0.00000000	      0.50000000	      0.00000000	      0.25000000	     39.40568218	     -5.72636521	      8.74109266	     27.44291343	      0.47896920	     -9.14319295	    -12.24215160	      0.00000000	      0.00000000	     67.35607696	      3.56413080	      6.39719952	    102.84996578	      1.79507054	     -3.52236218	     -8.34217279	      0.00000000	      0.00000000	    -65.35763482	     -2.17962149	    -15.12097809	     85.64349857	     -8.73990078	     48.76995978	     57.92939762	     41.09024195	      0.00000000	      0.00000000	     79.56922756	    -30.78559534	     24.56472246	     63.76143250	     51.59285768	      0.00000000	      0.00000000
      2.51500000	    -12.48733669	      7.19056057	     -0.41317137	      0.18874404	      1.14381580	     -0.19214087	      0.00000000	      0.50000000	      0.00000000	      0.25000000	     38.28152267	     -6.66770664	      7.99704626	     25.49153335	      0.44491119	    -10.04379014	    -11.41010197	      0.00000000	      0.00000000	     68.97836965	      3.99707494	      6.16800524	    103.88716073	      1.81317301	     -2.96231003	     -8.15842240	      0.00000000	      0.00000000	    -64.88963782	     -2.86309168	    -16.14626666	     84.99791544	     -9.00094166	     48.89770948	     57.67040703	     41.09586966	      0.00000000	      0.00000000	     79.75722022	    -30.52361659	     24.75811579	     63.89512532	     51.63088323	      0.00000000	      0.00000000
      2.52000000	    -12.65687686	      7.80616583	      0.58798271	      0.19019820	      1.14484027	     -0.18994979	      0.00000000	      0.50000000	      0.00000000	      0.25000000	     36.60527170	     -7.83699148	      6.98582881	     23.31073978	      0.40684916	    -11.22732119	    -10.80309535	      0.00000000	      0.00000000	     70.18241295	      4.73725099	      6.00541011	    104.60173765	      1.82564473	     -2.05004359	     -7.22958357	      0.00000000	      0.00000000	    -64.77763366	     -3.21108010	    -17.32106721	     84.24869270	     -8.99335867	     48.70029902	     57.30330880	     41.15752902	      0.00000000	      0.00000000	     79.98511679	    -30.32339085	     25.36656873	     63.75145924	     51.66725656	      0.00000000	      0.00000000
      2.52500000	    -13.09568991	      8.05819029	      0.92727824	      0.19124378	      1.14455725	     -0.18870387	      0.00000000	      0.50000000	      0.00000000	      0.25000000	     35.54327122	     -8.39366868	      6.08641864	     21.50444380	      0.37532335	    -12.17828571	     -9.63952657	      0.00000000	      0.00000000	     71.82156576	      4.79187210	      5.89922844	    105.56420160	      1.84244289	     -1.30862559	     -6.58322871	      0.00000000	      0.00000000	    -64.27798305	     -3.87403033	    -17.80004161	     83.66076900	     -9.15005475	     48.41006735	     56.66898637	     41.66883408	      0.00000000	      0.00000000	     80.51196534	    -30.06941718	     26.64175191	     63.26408654	     51.69858057	      0.00000000	      0.00000000
      2.53000000	    -13.57958834	      8.47525305	      1.42216359	      0.19213018	      1.14460205	     -0.18676619	      0.00000000	      0.50000000	      0.00000000	      0.25000000	     34.53727544	     -9.09546502	      5.24523429	     19.78198078	      0.34526070	    -13.11977868	     -8.53885742	      0.00000000	      0.00000000	     73.44697277	      4.96227082	      5.69207506	    106.22301157	      1.85394129	     -0.78425998	     -6.05896229	      0.00000000	      0.00000000	    -63.86177419	     -4.55713941	    -18.53465329	     83.18352178	     -9.39251845	     48.55947431	     56.34141006	     41.68677173	      0.00000000	      0.00000000	     80.65859862	    -29.73823600	     26.90264479	     63.38316619	     51.73973146	      0.00000000	      0.00000000
      2.53500000	    -14.00565658	      8.73861721	      1.89231865	      0.19301306	      1.14467858	     -0.18484883	      0.00000000	      0.50000000	      0.00000000	      0.25000000	     33.50523116	     -9.64007791	      4.26174945	     18.18851713	      0.31744951	    -13.99139837	     -7.40051443	      0.00000000	      0.00000000	     74.99948883	      4.90360533	      5.52445316	    106.78035026	      1.86366869	     -0.23311333	     -5.29185171	      0.00000000	      0.00000000	    -63.48001092	     -5.14723340	    -19.07038274	     82.79035227	     -9.61385704	     48.71948346	     55.93050333	     41.69997533	      0.00000000	      0.00000000	     80.89194227	    -29.47663975	     27.42582972	     63.42255074	     51.79485025	      0.00000000	      0.00000000
      2.54000000	    -14.40887833	      8.92495033	      2.28708527	      0.19397366	      1.14472909	     -0.18289432	      0.00000000	      0.50000000	      0.00000000	      0.25000000	     32.55674420	    -10.03493499	      3.19440824	     16.86565006	      0.29436112	    -14.71357971	     -6.35300479	      0.00000000	      0.00000000	     76.46277230	      4.82322613	      5.45089740	    107.21631284	      1.87127767	      0.20664803	     -4.68856533	      0.00000000	      0.00000000	    -63.16099971	     -5.77917997	    -19.54149092	     82.43361268	     -9.81423575	     48.82512281	     55.53420546	     41.69304332	      0.00000000	      0.00000000	     81.20409708	    -29.18948185	     27.88567361	     63.46873850	     51.84309146	      0.00000000	      0.00000000
      2.54500000	    -14.86089696	      9.05690222	      2.68239458	      0.19485097	      1.14479837	     -0.18119723	      0.00000000	      0.50000000	      0.00000000	      0.25000000	     31.70740804	    -10.37814041	      2.26246782	     15.63270394	      0.27284215	    -15.38803187	     -5.28479465	      0.00000000	      0.00000000	     77.94653805	      4.70331331	      5.41354485	    107.48695549	      1.87600128	      0.52895724	     -3.97974925	      0.00000000	      0.00000000	    -62.79587323	     -6.28080355	    -19.90382118	     82.19421610	     -9.94925974	     48.87295821	     55.12166608	     41.67301174	      0.00000000	      0.00000000	     81.46653942	    -28.91131282	     28.38739145	     63.46000027	     51.88793506	      0.00000000	      0.00000000
      2.55000000	    -15.10609325	      8.89860642	      3.11119115	      0.19558911	      1.14488545	     -0.17956880	      0.00000000	      0.50000000	      0.00000000	      0.25000000	     30.76696079	    -10.45825023	      0.91664987	     14.75525594	      0.25752780	    -15.66582041	     -4.03328174	      0.00000000	      0.00000000	     79.20472475	      4.54456851	      5.78018854	    107.69299791	      1.87959739	      1.15715276	     -2.54608749	      0.00000000	      0.00000000	    -62.52249015	     -6.62346195	    -19.77278511	     82.03492697	    -10.06182168	     48.61020095	     54.05417187	     41.66421689	      0.00000000	      0.00000000	     82.15700662	    -28.48851367	     30.23519166	     62.70454536	     51.94059737	      0.00000000	      0.00000000
      2.55500000	    -15.62634194	      8.98917958	      3.37353550	      0.19599008	      1.14479997	     -0.17813224	      0.00000000	      0.50000000	      0.00000000	      0.25000000	     30.33644267	    -10.65547737	      0.17238655	     14.14695282	      0.24691091	    -15.99256406	     -3.20612606	      0.00000000	      0.00000000	     80.67024804	      4.34952301	      5.72574766	    107.62326057	      1.87838025	      1.20214375	     -2.04082906	      0.00000000	      0.00000000	    -62.10089751	     -7.27334159	    -19.82391839	     81.83118066	    -10.33690914	     48.20146454	     53.39929921	     41.88386785	      0.00000000	      0.00000000	     83.07191025	    -28.09380091	     32.19718629	     61.81088902	     51.95538627	      0.00000000	      0.00000000
      2.56000000	    -16.02648173	      9.09498405	      3.61731960	      0.19633228	      1.14503857	     -0.17671783	      0.00000000	      0.50000000	      0.00000000	      0.25000000	     29.85177614	    -10.81252673	     -0.33170536	     13.71451694	      0.23936348	    -16.31152997	     -2.93308951	      0.00000000	      0.00000000	     81.89491438	      4.21049534	      5.62726281	    107.35641494	      1.87372291	      1.18278076	     -1.76290428	      0.00000000	      0.00000000	    -61.89526775	     -7.76484053	    -20.04616744	     81.85495852	    -10.49097666	     48.12825496	     53.20248256	     41.88696485	      0.00000000	      0.00000000	     83.37477509	    -27.78382800	     32.38845906	     61.93008731	     51.98281694	      0.00000000	      0.00000000
      2.56500000	    -16.19469953	      9.10375027	      3.71630918	      0.19638051	      1.14561766	     -0.17526430	      0.00000000	      0.50000000	      0.00000000	      0.25000000	     29.30976049	    -10.78686361	     -0.82551857	     13.61984234	      0.23771109	    -16.27556226	     -2.95667936	      0.00000000	      0.00000000	     82.84937576	      3.77514699	      5.54221211	    107.00567296	      1.86760131	      1.21157574	     -1.52397076	      0.00000000	      0.00000000	    -61.91493527	     -8.31172499	    -20.25758113	     82.01503748	    -10.61154861	     48.03013939	     53.10164698	     41.87238537	      0.00000000	      0.00000000	     83.51486792	    -27.60585745	     32.49733327	     61.98126738	     51.99785421	      0.00000000	      0.00000000
      2.57000000	    -16.80005536	      9.21863070	      3.98786635	      0.19634807	      1.14564698	     -0.17425751	      0.00000000	      0.50000000	      0.00000000	      0.25000000	     29.51156482	    -11.01377148	     -1.56598166	     14.10767720	      0.24622542	    -16.04902477	     -2.32339975	      0.00000000	      0.00000000	     84.04455797	      3.71000139	      5.44117890	    106.44210546	      1.85776520	      1.68756424	     -0.65893656	      0.00000000	      0.00000000	    -61.53843935	     -9.02922332	    -19.85427198	     81.72587323	    -11.36011184	     46.75171895	     52.55762520	     42.19871457	      0.00000000	      0.00000000	     84.94299010	    -26.19619625	     34.84795423	     60.42791510	     51.89310151	      0.00000000	      0.00000000
      2.57500000	    -17.15304601	      9.23321898	      4.06999443	      0.19603206	      1.14590413	     -0.17394899	      0.00000000	      0.50000000	      0.00000000	      0.25000000	     29.53182331	    -11.04939576	     -1.79809293	     14.66580754	      0.25596663	    -15.86460076	     -2.58043891	      0.00000000	      0.00000000	     84.86032123	      3.62470557	      5.30225808	    105.84367127	      1.84732056	      2.32650126	     -0.79184734	      0.00000000	      0.00000000	    -61.44871964	     -9.42413007	    -19.86875839	     82.05942680	    -11.66603819	     46.49838668	     52.40785375	     42.21862556	      0.00000000	      0.00000000	     85.21952762	    -25.83750993	     35.04381685	     60.66780153	     51.93194394	      0.00000000	      0.00000000
